<svg width="538" height="406" viewBox="0 0 538 406" fill="none" xmlns="http://www.w3.org/2000/svg">
<g id="Illustration 11">
<g id="Background">
<g id="Background Object / Cloud / 1">
<g id="Group 3">
<path id="Fill 1" fill-rule="evenodd" clip-rule="evenodd" d="M218.677 77.2343H105.56C105.56 77.2343 116.217 61.6925 124.977 61.4493C135.433 61.1592 140.141 72.6564 150.182 72.6564C160.224 72.6564 166.948 44.5337 185.536 44.5337C205.379 44.5337 218.677 77.2343 218.677 77.2343Z" fill="#ECF6FF"/>
</g>
</g>
<g id="Background Object / Tree / 2">
<g id="Group 14">
<path id="Fill 1_2" fill-rule="evenodd" clip-rule="evenodd" d="M271.16 223.095C269.94 219.442 263.253 220.061 263.252 209.875C263.25 194.538 284.372 196.288 285.617 184.732C286.863 173.177 273.29 173.453 272.87 163.706C272.45 153.959 282.77 133.848 298.429 133.848C310.776 133.848 300.55 149.366 310.514 156.306C320.479 163.245 331.859 154.355 337.492 165.267C345.251 180.299 325.411 198.351 327.369 209.875C329.326 221.398 340.956 218.673 341.312 231.335C341.668 243.996 324.774 246.224 326.365 257.081C327.369 263.925 338.06 261.64 338.621 275.135C339.096 286.561 302.361 300.699 274.766 277.449C247.171 254.198 275.816 237.037 271.16 223.095Z" fill="#CCE3FF"/>
<path id="Stroke 4" d="M301.574 195.419V307.711" stroke="#ECF6FF" stroke-width="8" stroke-linecap="square"/>
<path id="Stroke 6" d="M302.152 271.451L316.583 257.021" stroke="#ECF6FF" stroke-width="8" stroke-linecap="square"/>
<path id="Stroke 8" d="M302.345 230.35L309.681 223.014" stroke="#ECF6FF" stroke-width="8" stroke-linecap="square"/>
<path id="Stroke 10" d="M300.803 246.68L289.297 235.174" stroke="#ECF6FF" stroke-width="8" stroke-linecap="square"/>
<path id="Stroke 12" d="M301.069 211.155L295.478 205.564" stroke="#ECF6FF" stroke-width="8" stroke-linecap="square"/>
</g>
</g>
<g id="Background Object / Tree / 5">
<g id="Group 12">
<path id="Fill 1_3" fill-rule="evenodd" clip-rule="evenodd" d="M157.457 238.491C157.457 260.57 143.047 272.888 124.28 272.888C105.512 272.888 91.1025 260.57 91.1025 238.491C91.1025 192.003 112.278 138.41 124.28 138.41C136.281 138.41 157.457 192.003 157.457 238.491Z" fill="#CCE3FF"/>
<path id="Stroke 4_2" d="M124.279 205.649V307.559" stroke="#ECF6FF" stroke-width="8" stroke-linecap="square"/>
<path id="Stroke 6_2" d="M124.676 259.636L136.419 247.893" stroke="#ECF6FF" stroke-width="8" stroke-linecap="square"/>
<path id="Stroke 8_2" d="M123.297 237.263L113.688 227.654" stroke="#ECF6FF" stroke-width="8" stroke-linecap="square"/>
<path id="Stroke 10_2" d="M124.858 222.211L132.194 214.875" stroke="#ECF6FF" stroke-width="8" stroke-linecap="square"/>
</g>
</g>
<g id="Background Object / Tree / 3">
<g id="Group 12_2">
<path id="Fill 1_4" fill-rule="evenodd" clip-rule="evenodd" d="M276.659 228.474C276.659 253.832 256.122 274.388 230.787 274.388C205.453 274.388 184.916 253.832 184.916 228.474C184.916 203.116 205.453 182.559 230.787 182.559C256.122 182.559 276.659 203.116 276.659 228.474Z" fill="#ECF6FF"/>
<path id="Stroke 4_3" d="M230.787 215.204V309.116" stroke="#B6D4FF" stroke-width="8"/>
<path id="Stroke 6_3" d="M230.788 258.749L241 248.527" stroke="#B6D4FF" stroke-width="8"/>
<path id="Stroke 8_3" d="M231.173 228.068L236.431 222.805" stroke="#B6D4FF" stroke-width="8"/>
<path id="Stroke 10_3" d="M230.788 243.5L221.001 233.704" stroke="#B6D4FF" stroke-width="8"/>
</g>
</g>
<g id="Background Object / Streetlight / 2">
<g id="Group 13">
<path id="Fill 1_5" fill-rule="evenodd" clip-rule="evenodd" d="M387.574 59.3015H384.51C383.035 59.3015 381.84 60.4963 381.84 61.9707V282.946H390.243V61.9707C390.243 60.4963 389.048 59.3015 387.574 59.3015Z" fill="#D7EBFF"/>
<path id="Fill 3" fill-rule="evenodd" clip-rule="evenodd" d="M379.319 303.271H392.762V280.481H379.319V303.271Z" fill="#CCE3FF"/>
<path id="Fill 5" fill-rule="evenodd" clip-rule="evenodd" d="M375.671 357.455H396.41V290.85H375.671V357.455Z" fill="#D7EBFF"/>
<path id="Fill 6" fill-rule="evenodd" clip-rule="evenodd" d="M394.685 348.631H377.396C373.902 348.631 371.069 351.463 371.069 354.957V357.737H401.011V354.957C401.011 351.463 398.179 348.631 394.685 348.631Z" fill="#CCE3FF"/>
<path id="Fill 7" fill-rule="evenodd" clip-rule="evenodd" d="M396.409 290.223H375.673C373.954 290.223 372.561 291.616 372.561 293.335V293.718C372.561 295.437 373.954 296.83 375.673 296.83H396.409C398.128 296.83 399.521 295.437 399.521 293.718V293.335C399.521 291.616 398.128 290.223 396.409 290.223Z" fill="#CCE3FF"/>
<path id="Fill 8" fill-rule="evenodd" clip-rule="evenodd" d="M386.042 47.4246C382.952 47.4246 380.448 49.9291 380.448 53.0184V53.7079C380.448 56.7971 382.952 59.3017 386.042 59.3017C389.131 59.3017 391.635 56.7971 391.635 53.7079V53.0184C391.635 49.9291 389.131 47.4246 386.042 47.4246Z" fill="#CCE3FF"/>
<path id="Fill 9" fill-rule="evenodd" clip-rule="evenodd" d="M394.31 112.653H377.771C376.053 112.653 374.659 114.046 374.659 115.765V116.148C374.659 117.867 376.053 119.26 377.771 119.26H394.31C396.028 119.26 397.422 117.867 397.422 116.148V115.765C397.422 114.046 396.028 112.653 394.31 112.653Z" fill="#CCE3FF"/>
<path id="Fill 10" fill-rule="evenodd" clip-rule="evenodd" d="M392.053 119.26H380.029C378.901 119.26 377.986 120.175 377.986 121.304V121.556C377.986 122.684 378.901 123.598 380.029 123.598H392.053C393.181 123.598 394.096 122.684 394.096 121.556V121.304C394.096 120.175 393.181 119.26 392.053 119.26Z" fill="#CCE3FF"/>
<path id="Fill 11" fill-rule="evenodd" clip-rule="evenodd" d="M401.922 68.874L392.838 112.653H379.247L370.16 68.874H401.922Z" fill="#ECF6FF"/>
<path id="Fill 12" fill-rule="evenodd" clip-rule="evenodd" d="M404.68 71.1956L400.697 63.3596H371.384L367.401 71.1956H404.68Z" fill="#CCE3FF"/>
</g>
</g>
</g>
<g id="Person / Man / 2">
<g id="Man / Head / 1">
<g id="Group 25">
<g id="Face color">
<path id="Face" d="M200.33 157.267L200.054 147.728C200.054 147.728 211.659 148.651 214.142 147.363C214.142 147.363 217.176 131.75 213.557 123.104L213.484 122.767L188.993 119.906L187.47 133.772C186.645 131.342 179.987 128.755 178.207 132.236C174.35 139.777 188.141 144.854 188.141 144.854L186.741 157.382" fill="#FFCDA0"/>
</g>
<path id="Fill 4" opacity="0.400274" fill-rule="evenodd" clip-rule="evenodd" d="M200.054 147.728L192.229 146.052L200.017 151.307L200.054 147.728Z" fill="black"/>
<path id="Fill 6_2" fill-rule="evenodd" clip-rule="evenodd" d="M206.509 132.141L209.213 138.745L205.972 138.786L206.509 132.141Z" fill="#2437A8"/>
<path id="Fill 8_2" fill-rule="evenodd" clip-rule="evenodd" d="M203.426 134.018C203.587 134.907 202.996 135.758 202.105 135.919C201.215 136.08 200.363 135.489 200.202 134.6C200.041 133.711 200.632 132.86 201.522 132.699C202.413 132.538 203.265 133.129 203.426 134.018Z" fill="#0D0B6D"/>
<path id="Fill 10_2" fill-rule="evenodd" clip-rule="evenodd" d="M211.931 134.018C212.092 134.907 211.501 135.758 210.611 135.919C209.72 136.08 208.868 135.489 208.707 134.6C208.546 133.711 209.137 132.86 210.028 132.699C210.918 132.538 211.77 133.129 211.931 134.018Z" fill="#0D0B6D"/>
<g id="Group 15">
<path id="Fill 12_2" fill-rule="evenodd" clip-rule="evenodd" d="M203.146 140.655C203.146 140.655 204.279 142.49 206.523 142.334L203.146 140.655Z" fill="white"/>
<path id="Stroke 14" d="M203.146 140.655C203.146 140.655 204.279 142.49 206.523 142.334" stroke="#252535" stroke-width="4"/>
</g>
<path id="Path" fill-rule="evenodd" clip-rule="evenodd" d="M187.617 133.92C185.789 132.026 183.798 131.224 182.591 130.891L182.821 126.111L194.326 124.108C193.533 129.439 190.454 132.348 187.617 133.92Z" fill="#EACB47"/>
<path id="Fill 18" fill-rule="evenodd" clip-rule="evenodd" d="M214.237 124.969C213.201 123.984 206.446 123.679 198.325 124.304C196.437 124.449 194.626 124.632 192.951 124.844C187.416 125.538 183.343 126.526 182.681 127.395C181.945 116.542 188.6 110.078 197.314 109.477C203.03 109.082 208.215 111.31 211.318 115.952C212.906 118.331 213.951 121.347 214.237 124.969Z" fill="#393954"/>
<path id="Fill 22" fill-rule="evenodd" clip-rule="evenodd" d="M214.367 125.183H214.364C214.353 125.108 214.309 125.035 214.236 124.968C213.2 123.984 206.444 123.678 198.324 124.303C196.435 124.448 194.625 124.631 192.95 124.843C195.332 122.583 199.689 119.01 204.829 117.407C207.026 116.721 209.255 116.221 211.316 115.951C216.32 115.289 220.334 115.969 220.535 118.563C220.794 121.938 215.231 124.765 214.367 125.183Z" fill="#161629"/>
</g>
</g>
<g id="Man / Legs / 1">
<g id="Group 21">
<g id="Shoes">
<path id="Shoes_2" fill-rule="evenodd" clip-rule="evenodd" d="M143.649 328.694L152.217 320.843L149.241 312.901L130.901 326.507L145.757 352.418C145.757 352.418 146.235 345.979 145.458 338.846C144.921 333.919 143.649 328.694 143.649 328.694ZM225.612 346.063L223.655 339.759L215.369 340.196L222.265 357.508L248.755 342.174C240.894 339.796 225.612 346.063 225.612 346.063Z" fill="#0D0B6D"/>
</g>
<g id="Legs skin">
<path id="Skin" fill-rule="evenodd" clip-rule="evenodd" d="M150.058 322.845L149.116 312.894L138.56 320.876L143.649 328.696L150.058 322.845ZM224 340.824L215.808 341.562L218.832 348.889L225.613 346.063L224 340.824Z" fill="#E576C6"/>
</g>
<g id="Pants">
<path id="Pants_2" d="M182.374 247.377L171.494 211.995H199.417L214.114 211.995C214.142 220.65 213.122 234.906 207.726 251.139L224.858 331.831C225.071 332.844 224.711 333.856 223.98 334.511L226.583 343.754L215.943 346.852L213.408 338.238L213.342 338.26C211.833 338.758 210.209 337.921 209.744 336.409L192.818 281.358C190.909 284.172 188.829 286.981 186.568 289.77C172.254 307.427 163.333 316.951 158.745 321.532C157.107 323.17 154.559 323.25 152.831 321.912L146.288 327.299L139.792 318.363L146.258 313.038C145.222 311.376 145.392 309.216 146.717 307.741C153.309 300.385 171.863 277.919 182.374 247.378L182.374 247.377Z" fill="#19141E"/>
<mask id="mask0_5_253" style="mask-type:alpha" maskUnits="userSpaceOnUse" x="139" y="211" width="88" height="136">
<path id="Pants_3" d="M182.374 247.377L171.494 211.995H199.417L214.114 211.995C214.142 220.65 213.122 234.906 207.726 251.139L224.858 331.831C225.071 332.844 224.711 333.856 223.98 334.511L226.583 343.754L215.943 346.852L213.408 338.238L213.342 338.26C211.833 338.758 210.209 337.921 209.744 336.409L192.818 281.358C190.909 284.172 188.829 286.981 186.568 289.77C172.254 307.427 163.333 316.951 158.745 321.532C157.107 323.17 154.559 323.25 152.831 321.912L146.288 327.299L139.792 318.363L146.258 313.038C145.222 311.376 145.392 309.216 146.717 307.741C153.309 300.385 171.863 277.919 182.374 247.378L182.374 247.377Z" fill="white"/>
</mask>
<g mask="url(#mask0_5_253)">
</g>
</g>
<g id="Overlay">
<path id="Path_2" opacity="0.0987491" fill-rule="evenodd" clip-rule="evenodd" d="M213.408 338.238L213.341 338.26C211.833 338.758 210.208 337.921 209.744 336.409L192.817 281.358L182.374 247.378L171.494 211.995H199.416L207.726 251.138L224.858 331.831C225.071 332.844 224.71 333.856 223.979 334.511L226.583 343.754L215.942 346.852L213.408 338.238Z" fill="white"/>
</g>
<g id="Pants line">
<path id="Pants line_2" d="M219.115 336.098L214.633 337.689L196.651 275.34L185.557 236.877L178.382 211.995H187.477L189.076 218.27L201.398 266.598L219.115 336.098Z" fill="#EFEFEF"/>
</g>
</g>
</g>
<g id="Man / Body / 5">
<g id="Group 36">
<g id="Skin color">
<path id="Mask" fill-rule="evenodd" clip-rule="evenodd" d="M184.405 155.463C185.147 156.76 188.402 161.555 196.116 162.008C203.567 162.443 203.014 158.498 202.625 157.179C202.451 157.131 202.277 157.083 202.101 157.034C200.462 156.581 198.719 156.098 196.331 155.85C189.811 155.175 189.299 155.126 184.405 155.463ZM243.458 176.377C239.912 183.339 227.465 206.193 218.592 202.548C211.948 199.819 203.995 177.19 203.995 177.19L216.923 169.496L222.733 185.046L234.595 172.16C234.192 169.606 233.869 166.268 234.672 165.092C236.039 163.089 242.956 156.918 242.956 156.918L244.215 167.373L244.435 166.492C244.435 166.443 244.446 166.39 244.471 166.332L244.479 166.316L244.988 164.275C244.774 164.167 244.687 164.014 244.779 163.801C244.854 163.628 245.018 163.439 245.246 163.24L246.985 156.274C246.985 156.274 247.555 156.528 248.392 156.908C249.737 156.631 254.609 159.942 254.683 159.993L254.684 159.993C255.676 160.634 253.316 171.223 251.4 173.191C250.036 174.59 245.794 175.797 243.458 176.377ZM164.253 223.597L165.045 225.1C165.045 225.1 165.762 226.328 166.513 228.472C166.79 229.265 166.922 229.944 167.061 230.655C167.297 231.867 167.551 233.173 168.574 235.295C170.417 239.118 167.121 237.542 165.94 235.873C165.551 235.325 165.345 234.695 165.147 234.091C164.875 233.261 164.618 232.478 163.926 232.022C163.891 232.077 163.853 232.134 163.811 232.196C163.37 232.853 162.566 234.052 162.099 239.09C162.007 240.08 162.456 243.288 162.456 243.288C162.457 243.36 162.458 243.437 162.459 243.519C162.477 244.539 162.507 246.277 161.494 246.56C161.223 246.636 160.87 246.336 160.87 246.336C160.87 246.336 160.976 247.591 159.858 247.841C159.418 247.939 158.544 245.23 158.544 245.23C158.544 245.23 158.411 246.606 157.576 246.759C157.34 246.802 154.552 238.954 154.552 238.954L154.72 240.726L155.09 242.542C155.09 242.542 155.06 243.519 154.275 243.692C153.963 243.761 153.365 242.131 152.804 240.213C151.932 237.229 151.95 234.987 152.207 232.757C152.269 232.217 152.313 231.748 152.354 231.317C152.515 229.603 152.619 228.495 153.578 225.854C153.722 225.459 153.914 225.005 154.129 224.538C153.471 218.858 151.617 202.231 151.844 197.126C152.119 190.935 158.679 177.19 158.679 177.19L171.997 184.635L164.656 198.01L164.253 223.597Z" fill="#FFCDA0"/>
</g>
<g id="T-Shirt">
<path id="T-Shirt_2" fill-rule="evenodd" clip-rule="evenodd" d="M171.596 212.154H214.322L215.888 185.78L223.386 181.409L218.132 169.33L218.087 169.339C217.868 168.9 217.628 168.445 217.365 167.972C214.104 162.098 208.527 158.786 202.625 157.18C202.529 157.154 202.491 157.135 202.486 157.141C202.475 157.157 202.68 157.329 202.738 157.931C202.82 158.773 202.554 159.916 202.275 160.264C201.615 161.083 200.618 161.548 200.217 161.657C199.816 161.767 199.499 161.83 199.144 161.901C198.895 161.95 197.482 162.055 197.237 162.042C195.226 161.937 194.239 161.844 192.973 161.543C192.524 161.437 192.06 161.315 191.51 161.084C191.407 161.04 191.294 160.994 191.173 160.944C190.578 160.7 189.786 160.374 188.982 159.925C188.131 159.45 187.264 158.823 186.637 158.183C186.576 158.121 186.517 158.061 186.46 158.002C185.801 157.331 185.352 156.873 185.04 156.414C184.829 156.103 184.75 156 184.703 155.939C184.675 155.903 184.659 155.881 184.633 155.839C184.564 155.728 184.504 155.629 184.487 155.563C184.469 155.492 184.534 155.462 184.532 155.455C184.53 155.45 184.501 155.455 184.405 155.465C181.398 155.762 178.166 156.538 174.642 158.183C163.741 163.267 157.37 176.043 157.37 176.043L170.879 186.146L171.596 212.154Z" fill="#3BC5E9"/>
</g>
<path id="Stroke 16" opacity="0.200521" d="M170.878 186.144L174.306 188.463L182.544 178.897" stroke="black" stroke-width="5"/>
<path id="Phone" d="M249.118 169.235L248.521 172.155H238.854L243.414 148.907H253.081C252.831 150.184 252.241 153.193 251.311 157.934L249.41 157.055L248.818 156.892L248.352 156.918L248.15 157.055V157.62L250.216 160.584L248.635 161.271L246.203 162.543L245.501 163.028L245.228 163.279L245.006 163.478L244.864 163.649L244.779 163.801L244.743 163.999L244.779 164.087L244.822 164.154L244.883 164.215L245.68 164.496L247.499 163.999H249.296L246.897 164.496L245.316 165.439L244.779 165.944L244.476 166.315V166.654L245.006 166.892L248.352 166.509L247.244 167.111L246.51 167.564L245.837 167.911L245.316 168.58V168.911L245.501 169.105L245.968 169.353H246.68H248.116L249.118 169.235Z" fill="#5E93D1"/>
<path id="Fill 23" fill-rule="evenodd" clip-rule="evenodd" d="M238.854 172.155H237.254L241.814 148.907H243.413L238.854 172.155Z" fill="#020101"/>
<path id="Fill 34" fill-rule="evenodd" clip-rule="evenodd" d="M245.078 151.606C244.944 152.286 244.548 152.78 244.193 152.711C243.838 152.642 243.659 152.035 243.792 151.356C243.926 150.677 244.322 150.183 244.677 150.252C245.032 150.321 245.211 150.927 245.078 151.606Z" fill="#020101"/>
</g>
</g>
</g>
</g>
</svg>
